<svg xmlns="http://www.w3.org/2000/svg" xmlns:xlink="http://www.w3.org/1999/xlink" width="250" zoomAndPan="magnify" viewBox="0 0 187.5 89.999999" height="120" preserveAspectRatio="xMidYMid meet" version="1.0"><defs><g/><clipPath id="7f7a9a0497"><path d="M 11.117188 18.78125 L 64 18.78125 L 64 71.21875 L 11.117188 71.21875 Z M 11.117188 18.78125 " clip-rule="nonzero"/></clipPath><clipPath id="aef696462f"><path d="M 17 18.78125 L 58.101562 18.78125 C 59.660156 18.78125 61.15625 19.402344 62.257812 20.503906 C 63.363281 21.605469 63.980469 23.101562 63.980469 24.660156 L 63.980469 65.339844 C 63.980469 66.898438 63.363281 68.394531 62.257812 69.496094 C 61.15625 70.597656 59.660156 71.21875 58.101562 71.21875 L 17 71.21875 C 15.4375 71.21875 13.945312 70.597656 12.839844 69.496094 C 11.738281 68.394531 11.117188 66.898438 11.117188 65.339844 L 11.117188 24.660156 C 11.117188 23.101562 11.738281 21.605469 12.839844 20.503906 C 13.945312 19.402344 15.4375 18.78125 17 18.78125 Z M 17 18.78125 " clip-rule="nonzero"/></clipPath><clipPath id="d4fabe6768"><path d="M 21.851562 29.621094 L 51.410156 29.621094 L 51.410156 65.125 L 21.851562 65.125 Z M 21.851562 29.621094 " clip-rule="nonzero"/></clipPath><clipPath id="58f1c03267"><path d="M 26 24.867188 L 47 24.867188 L 47 34 L 26 34 Z M 26 24.867188 " clip-rule="nonzero"/></clipPath></defs><g clip-path="url(#7f7a9a0497)"><g clip-path="url(#aef696462f)"><path fill="#1b81a6" d="M 11.117188 18.78125 L 63.964844 18.78125 L 63.964844 71.21875 L 11.117188 71.21875 Z M 11.117188 18.78125 " fill-opacity="1" fill-rule="nonzero"/></g></g><g clip-path="url(#d4fabe6768)"><path fill="#ffffff" d="M 23.71875 30.484375 C 23.164062 30.484375 22.714844 30.9375 22.714844 31.488281 L 22.714844 63.261719 C 22.714844 63.8125 23.164062 64.265625 23.71875 64.265625 L 49.546875 64.265625 C 50.097656 64.265625 50.550781 63.8125 50.550781 63.261719 L 50.550781 31.488281 C 50.550781 30.9375 50.097656 30.484375 49.546875 30.484375 L 46.226562 30.484375 L 46.226562 31.898438 C 46.226562 32.75 45.535156 33.441406 44.6875 33.441406 L 28.210938 33.441406 C 27.359375 33.441406 26.667969 32.75 26.667969 31.898438 L 26.667969 30.484375 Z M 49.546875 65.125 L 23.71875 65.125 C 22.691406 65.125 21.851562 64.289062 21.851562 63.261719 L 21.851562 31.488281 C 21.851562 30.460938 22.691406 29.625 23.71875 29.625 L 27.527344 29.625 L 27.527344 31.898438 C 27.527344 32.273438 27.835938 32.578125 28.210938 32.578125 L 44.6875 32.578125 C 45.0625 32.578125 45.367188 32.273438 45.367188 31.898438 L 45.367188 29.625 L 49.546875 29.625 C 50.574219 29.625 51.410156 30.460938 51.410156 31.488281 L 51.410156 63.261719 C 51.410156 64.289062 50.574219 65.125 49.546875 65.125 " fill-opacity="1" fill-rule="nonzero"/></g><g clip-path="url(#58f1c03267)"><path fill="#ffffff" d="M 28.210938 28.273438 C 27.835938 28.273438 27.527344 28.582031 27.527344 28.957031 L 27.527344 31.898438 C 27.527344 32.273438 27.835938 32.578125 28.210938 32.578125 L 44.6875 32.578125 C 45.0625 32.578125 45.367188 32.273438 45.367188 31.898438 L 45.367188 28.957031 C 45.367188 28.582031 45.0625 28.273438 44.6875 28.273438 L 40.972656 28.273438 C 40.285156 28.273438 39.660156 27.871094 39.335938 27.222656 C 38.886719 26.316406 37.835938 25.734375 36.65625 25.734375 C 35.480469 25.734375 34.429688 26.316406 33.976562 27.222656 C 33.65625 27.871094 33.027344 28.273438 32.339844 28.273438 Z M 44.6875 33.441406 L 28.210938 33.441406 C 27.359375 33.441406 26.667969 32.75 26.667969 31.898438 L 26.667969 28.957031 C 26.667969 28.105469 27.359375 27.414062 28.210938 27.414062 L 32.339844 27.414062 C 32.699219 27.414062 33.03125 27.195312 33.207031 26.839844 C 33.800781 25.644531 35.15625 24.871094 36.65625 24.871094 C 38.160156 24.871094 39.515625 25.644531 40.109375 26.839844 C 40.285156 27.195312 40.617188 27.414062 40.972656 27.414062 L 44.6875 27.414062 C 45.535156 27.414062 46.226562 28.105469 46.226562 28.957031 L 46.226562 31.898438 C 46.226562 32.75 45.535156 33.441406 44.6875 33.441406 " fill-opacity="1" fill-rule="nonzero"/></g><path fill="#ffffff" d="M 37.355469 29.601562 C 37.355469 30 37.03125 30.324219 36.632812 30.324219 C 36.230469 30.324219 35.910156 30 35.910156 29.601562 C 35.910156 29.203125 36.230469 28.878906 36.632812 28.878906 C 37.03125 28.878906 37.355469 29.203125 37.355469 29.601562 " fill-opacity="1" fill-rule="nonzero"/><path fill="#ffffff" d="M 45.757812 40.484375 L 38.214844 40.484375 C 37.820312 40.484375 37.496094 40.164062 37.496094 39.765625 C 37.496094 39.371094 37.820312 39.050781 38.214844 39.050781 L 45.757812 39.050781 C 46.152344 39.050781 46.472656 39.371094 46.472656 39.765625 C 46.472656 40.164062 46.152344 40.484375 45.757812 40.484375 " fill-opacity="1" fill-rule="nonzero"/><path fill="#ffffff" d="M 45.757812 48.242188 L 38.214844 48.242188 C 37.820312 48.242188 37.496094 47.921875 37.496094 47.523438 C 37.496094 47.128906 37.820312 46.808594 38.214844 46.808594 L 45.757812 46.808594 C 46.152344 46.808594 46.472656 47.128906 46.472656 47.523438 C 46.472656 47.921875 46.152344 48.242188 45.757812 48.242188 " fill-opacity="1" fill-rule="nonzero"/><path fill="#ffffff" d="M 28.9375 40.632812 C 29.082031 40.847656 29.234375 41.050781 29.398438 41.246094 C 29.558594 41.445312 29.738281 41.621094 29.929688 41.785156 L 30.015625 41.859375 L 30.050781 41.890625 C 30.328125 42.097656 30.722656 42.039062 30.929688 41.761719 C 31.214844 41.382812 31.46875 40.976562 31.757812 40.605469 C 32.042969 40.230469 32.335938 39.859375 32.613281 39.472656 C 32.894531 39.09375 33.167969 38.707031 33.441406 38.320312 C 33.714844 37.933594 33.988281 37.546875 34.253906 37.148438 C 34.269531 37.125 34.269531 37.09375 34.25 37.066406 C 34.226562 37.039062 34.183594 37.035156 34.152344 37.058594 C 33.785156 37.363281 33.429688 37.675781 33.074219 37.988281 C 32.714844 38.296875 32.359375 38.613281 32.011719 38.929688 C 31.65625 39.246094 31.316406 39.574219 30.96875 39.894531 C 30.804688 40.054688 30.628906 40.207031 30.453125 40.355469 C 30.425781 40.332031 30.398438 40.300781 30.367188 40.277344 C 30.171875 40.117188 29.964844 39.960938 29.75 39.816406 C 29.539062 39.675781 29.316406 39.539062 29.078125 39.417969 C 28.84375 39.296875 28.59375 39.1875 28.316406 39.101562 C 28.304688 39.097656 28.289062 39.097656 28.273438 39.101562 C 28.234375 39.117188 28.210938 39.15625 28.222656 39.199219 C 28.304688 39.472656 28.414062 39.722656 28.539062 39.957031 C 28.65625 40.195312 28.792969 40.417969 28.9375 40.632812 " fill-opacity="1" fill-rule="nonzero"/><path fill="#ffffff" d="M 34.152344 44.816406 C 33.785156 45.121094 33.429688 45.433594 33.074219 45.746094 C 32.714844 46.054688 32.359375 46.371094 32.011719 46.6875 C 31.65625 47.003906 31.316406 47.332031 30.96875 47.652344 C 30.804688 47.8125 30.628906 47.964844 30.453125 48.117188 C 30.425781 48.089844 30.398438 48.058594 30.367188 48.035156 C 30.171875 47.875 29.964844 47.71875 29.75 47.574219 C 29.539062 47.433594 29.316406 47.296875 29.078125 47.175781 C 28.84375 47.054688 28.59375 46.945312 28.316406 46.859375 C 28.304688 46.855469 28.289062 46.855469 28.273438 46.859375 C 28.234375 46.875 28.210938 46.914062 28.222656 46.957031 C 28.304688 47.230469 28.414062 47.480469 28.539062 47.714844 C 28.65625 47.953125 28.792969 48.175781 28.9375 48.390625 C 29.082031 48.605469 29.234375 48.808594 29.398438 49.003906 C 29.558594 49.203125 29.738281 49.378906 29.929688 49.542969 L 30.015625 49.617188 L 30.050781 49.648438 C 30.328125 49.855469 30.722656 49.796875 30.929688 49.519531 C 31.214844 49.140625 31.46875 48.734375 31.757812 48.363281 C 32.042969 47.988281 32.335938 47.617188 32.613281 47.230469 C 32.894531 46.851562 33.167969 46.464844 33.441406 46.078125 C 33.714844 45.691406 33.988281 45.304688 34.253906 44.90625 C 34.269531 44.882812 34.269531 44.851562 34.25 44.824219 C 34.226562 44.796875 34.183594 44.792969 34.152344 44.816406 " fill-opacity="1" fill-rule="nonzero"/><path fill="#ffffff" d="M 34.152344 52.574219 C 33.785156 52.878906 33.429688 53.191406 33.074219 53.503906 C 32.714844 53.8125 32.359375 54.128906 32.011719 54.445312 C 31.65625 54.761719 31.316406 55.089844 30.96875 55.410156 C 30.804688 55.570312 30.628906 55.722656 30.453125 55.875 C 30.425781 55.847656 30.398438 55.816406 30.367188 55.792969 C 30.171875 55.632812 29.964844 55.476562 29.75 55.332031 C 29.539062 55.191406 29.316406 55.054688 29.078125 54.933594 C 28.84375 54.8125 28.59375 54.703125 28.316406 54.617188 C 28.304688 54.613281 28.289062 54.613281 28.273438 54.617188 C 28.234375 54.632812 28.210938 54.675781 28.222656 54.714844 C 28.304688 54.988281 28.414062 55.238281 28.539062 55.472656 C 28.65625 55.710938 28.792969 55.933594 28.9375 56.148438 C 29.082031 56.363281 29.234375 56.566406 29.398438 56.761719 C 29.558594 56.960938 29.738281 57.136719 29.929688 57.304688 L 30.015625 57.375 L 30.050781 57.40625 C 30.328125 57.613281 30.722656 57.554688 30.929688 57.277344 C 31.214844 56.898438 31.46875 56.492188 31.757812 56.121094 C 32.042969 55.746094 32.335938 55.375 32.613281 54.988281 C 32.894531 54.609375 33.167969 54.222656 33.441406 53.835938 C 33.714844 53.449219 33.988281 53.0625 34.253906 52.664062 C 34.269531 52.640625 34.269531 52.609375 34.25 52.582031 C 34.226562 52.554688 34.183594 52.550781 34.152344 52.574219 " fill-opacity="1" fill-rule="nonzero"/><path fill="#ffffff" d="M 45.757812 56 L 38.214844 56 C 37.820312 56 37.496094 55.679688 37.496094 55.285156 C 37.496094 54.886719 37.820312 54.566406 38.214844 54.566406 L 45.757812 54.566406 C 46.152344 54.566406 46.472656 54.886719 46.472656 55.285156 C 46.472656 55.679688 46.152344 56 45.757812 56 " fill-opacity="1" fill-rule="nonzero"/><g fill="#1b81a6" fill-opacity="1"><g transform="translate(74.499668, 52.10605)"><g><path d="M 6.359375 0 L 10.6875 -6.765625 L 10.6875 0 Z M 5.84375 0 L 0.65625 0 L 0.65625 -14.609375 L 5.84375 -14.609375 Z M 5.84375 0 "/></g></g></g><g fill="#1b81a6" fill-opacity="1"><g transform="translate(86.168858, 52.10605)"><g><path d="M 4.8125 0.171875 C 3.375 0.0546875 2.257812 -0.46875 1.46875 -1.40625 C 0.675781 -2.34375 0.28125 -3.597656 0.28125 -5.171875 C 0.28125 -6.765625 0.671875 -8.03125 1.453125 -8.96875 C 2.242188 -9.90625 3.363281 -10.441406 4.8125 -10.578125 Z M 5.953125 0.171875 L 5.953125 -10.578125 C 7.398438 -10.441406 8.519531 -9.898438 9.3125 -8.953125 C 10.101562 -8.015625 10.5 -6.753906 10.5 -5.171875 C 10.5 -3.609375 10.097656 -2.359375 9.296875 -1.421875 C 8.503906 -0.484375 7.390625 0.046875 5.953125 0.171875 Z M 5.953125 0.171875 "/></g></g></g><g fill="#1b81a6" fill-opacity="1"><g transform="translate(97.462665, 52.10605)"><g><path d="M 5.203125 3.96875 C 5.535156 3.675781 5.773438 3.34375 5.921875 2.96875 C 6.078125 2.59375 6.15625 2.066406 6.15625 1.390625 C 6.15625 1.273438 6.148438 1.097656 6.140625 0.859375 C 6.140625 0.617188 6.140625 0.4375 6.140625 0.3125 L 6.140625 -10.40625 L 10.078125 -10.40625 L 10.078125 -0.578125 C 10.078125 1.085938 9.78125 2.289062 9.1875 3.03125 C 8.59375 3.78125 7.632812 4.15625 6.3125 4.15625 C 6.164062 4.15625 6.003906 4.140625 5.828125 4.109375 C 5.660156 4.085938 5.453125 4.039062 5.203125 3.96875 Z M 1.078125 1.84375 C 1.078125 1.25 1.285156 0.738281 1.703125 0.3125 C 2.128906 -0.113281 2.640625 -0.328125 3.234375 -0.328125 C 3.816406 -0.328125 4.320312 -0.113281 4.75 0.3125 C 5.175781 0.738281 5.390625 1.25 5.390625 1.84375 C 5.390625 2.425781 5.175781 2.925781 4.75 3.34375 C 4.320312 3.769531 3.816406 3.984375 3.234375 3.984375 C 2.640625 3.984375 2.128906 3.773438 1.703125 3.359375 C 1.285156 2.941406 1.078125 2.4375 1.078125 1.84375 Z M 4.921875 -10.40625 L 4.921875 -0.625 C 4.835938 -0.613281 4.753906 -0.609375 4.671875 -0.609375 C 4.597656 -0.609375 4.484375 -0.609375 4.328125 -0.609375 C 3.003906 -0.609375 2 -1.023438 1.3125 -1.859375 C 0.625 -2.691406 0.28125 -3.921875 0.28125 -5.546875 C 0.28125 -7.066406 0.675781 -8.242188 1.46875 -9.078125 C 2.269531 -9.910156 3.421875 -10.351562 4.921875 -10.40625 Z M 4.921875 -10.40625 "/></g></g></g><g fill="#1b81a6" fill-opacity="1"><g transform="translate(108.568786, 52.10605)"><g><path d="M 11.859375 0 L 8.84375 -11.78125 L 9.59375 -14.609375 L 12.953125 -14.609375 L 16.65625 0 Z M -0.390625 0 L 2.046875 -9.390625 L 4.453125 0 Z M 5.703125 0 L 2.6875 -11.78125 L 3.4375 -14.609375 L 6.796875 -14.609375 L 10.515625 0 Z M 5.703125 0 "/></g></g></g><g fill="#1b81a6" fill-opacity="1"><g transform="translate(125.404449, 52.10605)"><g><path d="M 7.96875 -4.078125 L 5.3125 -10.40625 L 10.765625 -10.40625 Z M 7.34375 -2.703125 L 7.34375 4.125 L 3.3125 4.125 L 3.3125 -1.875 L -0.390625 -10.40625 L 4.125 -10.40625 Z M 7.34375 -2.703125 "/></g></g></g><g fill="#1b81a6" fill-opacity="1"><g transform="translate(136.332755, 52.10605)"><g><path d="M 0.09375 -2.53125 C 0.09375 -3.226562 0.320312 -3.828125 0.78125 -4.328125 C 1.25 -4.835938 1.789062 -5.09375 2.40625 -5.09375 C 3.019531 -5.09375 3.554688 -4.835938 4.015625 -4.328125 C 4.484375 -3.828125 4.71875 -3.226562 4.71875 -2.53125 C 4.71875 -1.820312 4.488281 -1.21875 4.03125 -0.71875 C 3.570312 -0.226562 3.03125 0.015625 2.40625 0.015625 C 1.78125 0.015625 1.238281 -0.226562 0.78125 -0.71875 C 0.320312 -1.21875 0.09375 -1.820312 0.09375 -2.53125 Z M 5.4375 -14.609375 L 10.625 -14.609375 L 10.625 -5.96875 C 10.625 -3.800781 10.191406 -2.253906 9.328125 -1.328125 C 8.460938 -0.398438 7.03125 0.0625 5.03125 0.0625 C 4.90625 0.0625 4.773438 0.0546875 4.640625 0.046875 C 4.503906 0.046875 4.359375 0.046875 4.203125 0.046875 C 4.660156 -0.304688 4.976562 -0.71875 5.15625 -1.1875 C 5.34375 -1.65625 5.4375 -2.363281 5.4375 -3.3125 Z M 5.4375 -14.609375 "/></g></g></g><g fill="#1b81a6" fill-opacity="1"><g transform="translate(148.110614, 52.10605)"><g><path d="M 4.8125 0.171875 C 3.375 0.0546875 2.257812 -0.46875 1.46875 -1.40625 C 0.675781 -2.34375 0.28125 -3.597656 0.28125 -5.171875 C 0.28125 -6.765625 0.671875 -8.03125 1.453125 -8.96875 C 2.242188 -9.90625 3.363281 -10.441406 4.8125 -10.578125 Z M 5.953125 0.171875 L 5.953125 -10.578125 C 7.398438 -10.441406 8.519531 -9.898438 9.3125 -8.953125 C 10.101562 -8.015625 10.5 -6.753906 10.5 -5.171875 C 10.5 -3.609375 10.097656 -2.359375 9.296875 -1.421875 C 8.503906 -0.484375 7.390625 0.046875 5.953125 0.171875 Z M 5.953125 0.171875 "/></g></g></g><g fill="#1b81a6" fill-opacity="1"><g transform="translate(159.40442, 52.10605)"><g><path d="M 5.703125 0 L 5.703125 -10.40625 C 7.160156 -10.257812 8.28125 -9.726562 9.0625 -8.8125 C 9.851562 -7.90625 10.25 -6.691406 10.25 -5.171875 C 10.25 -3.671875 9.847656 -2.46875 9.046875 -1.5625 C 8.253906 -0.65625 7.140625 -0.132812 5.703125 0 Z M 4.59375 0 L 0.5625 0 L 0.5625 -14.53125 L 4.59375 -14.53125 Z M 4.59375 0 "/></g></g></g><g fill="#1b81a6" fill-opacity="1"><g transform="translate(170.471031, 52.10605)"><g><path d="M 3.375 -10.40625 C 3.28125 -10.332031 3.203125 -10.25 3.140625 -10.15625 C 3.078125 -10.0625 3.046875 -9.96875 3.046875 -9.875 C 3.046875 -9.644531 3.179688 -9.390625 3.453125 -9.109375 C 3.503906 -9.054688 3.546875 -9.015625 3.578125 -8.984375 L 7.703125 -4.65625 C 8.066406 -4.28125 8.335938 -3.898438 8.515625 -3.515625 C 8.691406 -3.128906 8.78125 -2.734375 8.78125 -2.328125 C 8.78125 -1.578125 8.519531 -1 8 -0.59375 C 7.476562 -0.1875 6.734375 0.015625 5.765625 0.015625 C 5.710938 0.015625 5.632812 0.0078125 5.53125 0 C 5.4375 0 5.363281 0 5.3125 0 C 5.40625 -0.0625 5.476562 -0.140625 5.53125 -0.234375 C 5.59375 -0.335938 5.625 -0.441406 5.625 -0.546875 C 5.625 -0.773438 5.488281 -1.03125 5.21875 -1.3125 C 5.164062 -1.363281 5.132812 -1.394531 5.125 -1.40625 L 1.140625 -5.75 C 0.890625 -6.007812 0.71875 -6.273438 0.625 -6.546875 C 0.53125 -6.816406 0.484375 -7.175781 0.484375 -7.625 C 0.484375 -8.414062 0.738281 -9.078125 1.25 -9.609375 C 1.757812 -10.140625 2.394531 -10.40625 3.15625 -10.40625 Z M 7.953125 -5.96875 L 3.78125 -10.40625 L 7.953125 -10.40625 Z M 4.90625 0 L 0.65625 0 L 0.65625 -4.578125 Z M 4.90625 0 "/></g></g></g></svg>